<svg width="633" height="120" viewBox="0 0 633 120" fill="none" xmlns="http://www.w3.org/2000/svg">
<path d="M17.16 22.14L26.34 0H33.3L20.28 31.2C17.08 38.84 11.9 42.44 4.74 42V35.58C7.1 35.82 9 35.48 10.44 34.56C11.92 33.6 13.1 31.98 13.98 29.7L0 0H6.96L17.16 22.14Z" fill="#2C2B35"/>
<path d="M35.8542 12H62.5542V42H56.0742V18.12H42.3342V42H35.8542V12Z" fill="#2C2B35"/>
<path d="M87.053 11.22C91.133 11.22 94.653 12.76 97.613 15.84C100.533 18.88 101.993 22.6 101.993 27C101.993 31.44 100.533 35.18 97.613 38.22C94.693 41.26 91.173 42.78 87.053 42.78C82.533 42.78 79.033 41.1 76.553 37.74V54H70.073V12H76.553V16.32C78.993 12.92 82.493 11.22 87.053 11.22ZM79.253 33.9C81.053 35.7 83.313 36.6 86.033 36.6C88.753 36.6 91.013 35.7 92.813 33.9C94.613 32.06 95.513 29.76 95.513 27C95.513 24.24 94.613 21.96 92.813 20.16C91.013 18.32 88.753 17.4 86.033 17.4C83.313 17.4 81.053 18.32 79.253 20.16C77.453 21.96 76.553 24.24 76.553 27C76.553 29.72 77.453 32.02 79.253 33.9Z" fill="#2C2B35"/>
<path d="M131.626 16.26V12H138.106V42H131.626V37.68C129.186 41.08 125.686 42.78 121.126 42.78C117.006 42.78 113.486 41.26 110.566 38.22C107.646 35.18 106.186 31.44 106.186 27C106.186 22.56 107.646 18.82 110.566 15.78C113.486 12.74 117.006 11.22 121.126 11.22C125.686 11.22 129.186 12.9 131.626 16.26ZM115.366 33.9C117.166 35.7 119.426 36.6 122.146 36.6C124.866 36.6 127.126 35.7 128.926 33.9C130.726 32.06 131.626 29.76 131.626 27C131.626 24.24 130.726 21.96 128.926 20.16C127.126 18.32 124.866 17.4 122.146 17.4C119.426 17.4 117.166 18.32 115.366 20.16C113.566 21.96 112.666 24.24 112.666 27C112.666 29.72 113.566 32.02 115.366 33.9Z" fill="#2C2B35"/>
<path d="M166.419 26.58C169.379 27.98 170.859 30.28 170.859 33.48C170.859 36.04 169.979 38.1 168.219 39.66C166.499 41.22 164.099 42 161.019 42H145.659V12H159.819C162.859 12 165.239 12.76 166.959 14.28C168.679 15.8 169.539 17.8 169.539 20.28C169.539 23.12 168.499 25.22 166.419 26.58ZM159.339 17.52H151.839V24.18H159.339C161.979 24.18 163.299 23.06 163.299 20.82C163.299 18.62 161.979 17.52 159.339 17.52ZM151.839 36.36H160.419C163.139 36.36 164.499 35.18 164.499 32.82C164.499 31.78 164.139 30.98 163.419 30.42C162.699 29.82 161.699 29.52 160.419 29.52H151.839V36.36Z" fill="#2C2B35"/>
<path d="M177.882 12H200.862V42H194.382V18.24H184.362V29.4C184.362 34.08 183.342 37.44 181.302 39.48C179.262 41.52 176.282 42.36 172.362 42V35.94C174.202 36.26 175.582 35.88 176.502 34.8C177.422 33.68 177.882 31.78 177.882 29.1V12Z" fill="#2C2B35"/>
<path d="M237.393 29.76H213.513C213.993 32 215.073 33.74 216.753 34.98C218.473 36.22 220.593 36.84 223.113 36.84C226.513 36.84 229.093 35.6 230.853 33.12L236.193 36.24C233.273 40.6 228.893 42.78 223.053 42.78C218.213 42.78 214.273 41.3 211.233 38.34C208.233 35.34 206.733 31.56 206.733 27C206.733 22.56 208.213 18.82 211.173 15.78C214.093 12.74 217.893 11.22 222.573 11.22C226.933 11.22 230.533 12.76 233.373 15.84C236.213 18.92 237.633 22.66 237.633 27.06C237.633 27.86 237.553 28.76 237.393 29.76ZM213.453 24.48H231.093C230.653 22.12 229.653 20.3 228.093 19.02C226.573 17.74 224.713 17.1 222.513 17.1C220.113 17.1 218.113 17.76 216.513 19.08C214.913 20.4 213.893 22.2 213.453 24.48Z" fill="#2C2B35"/>
<path d="M263.555 23.94V12H270.035V42H263.555V30.06H249.815V42H243.335V12H249.815V23.94H263.555Z" fill="#2C2B35"/>
<path d="M283.913 31.02L299.273 12H304.253V42H297.893V22.92L282.533 42H277.553V12H283.913V31.02Z" fill="#2C2B35"/>
<path d="M340.752 29.76H316.872C317.352 32 318.432 33.74 320.112 34.98C321.832 36.22 323.952 36.84 326.472 36.84C329.872 36.84 332.452 35.6 334.212 33.12L339.552 36.24C336.632 40.6 332.252 42.78 326.412 42.78C321.572 42.78 317.632 41.3 314.592 38.34C311.592 35.34 310.092 31.56 310.092 27C310.092 22.56 311.572 18.82 314.532 15.78C317.452 12.74 321.252 11.22 325.932 11.22C330.292 11.22 333.892 12.76 336.732 15.84C339.572 18.92 340.992 22.66 340.992 27.06C340.992 27.86 340.912 28.76 340.752 29.76ZM316.812 24.48H334.452C334.012 22.12 333.012 20.3 331.452 19.02C329.932 17.74 328.072 17.1 325.872 17.1C323.472 17.1 321.472 17.76 319.872 19.08C318.272 20.4 317.252 22.2 316.812 24.48Z" fill="#2C2B35"/>
<path d="M378.554 26.64C381.754 28.08 383.354 30.46 383.354 33.78C383.354 36.38 382.294 38.54 380.174 40.26C378.054 41.94 375.174 42.78 371.534 42.78C365.494 42.78 361.414 40.38 359.294 35.58L364.574 32.46C365.654 35.46 367.994 36.96 371.594 36.96C373.274 36.96 374.594 36.62 375.554 35.94C376.514 35.22 376.994 34.28 376.994 33.12C376.994 32.08 376.614 31.26 375.854 30.66C375.094 30.02 374.034 29.7 372.674 29.7H368.414V24H371.594C372.914 24 373.934 23.7 374.654 23.1C375.414 22.46 375.794 21.6 375.794 20.52C375.794 19.48 375.374 18.64 374.534 18C373.694 17.32 372.574 16.98 371.174 16.98C368.174 16.98 366.094 18.3 364.934 20.94L359.654 17.94C361.854 13.46 365.654 11.22 371.054 11.22C374.414 11.22 377.074 12.08 379.034 13.8C381.034 15.48 382.034 17.54 382.034 19.98C382.034 22.98 380.874 25.2 378.554 26.64Z" fill="#2C2B35"/>
<path d="M412.407 16.26V12H418.887V42H412.407V37.68C409.967 41.08 406.467 42.78 401.907 42.78C397.787 42.78 394.267 41.26 391.347 38.22C388.427 35.18 386.967 31.44 386.967 27C386.967 22.56 388.427 18.82 391.347 15.78C394.267 12.74 397.787 11.22 401.907 11.22C406.467 11.22 409.967 12.9 412.407 16.26ZM396.147 33.9C397.947 35.7 400.207 36.6 402.927 36.6C405.647 36.6 407.907 35.7 409.707 33.9C411.507 32.06 412.407 29.76 412.407 27C412.407 24.24 411.507 21.96 409.707 20.16C407.907 18.32 405.647 17.4 402.927 17.4C400.207 17.4 397.947 18.32 396.147 20.16C394.347 21.96 393.447 24.24 393.447 27C393.447 29.72 394.347 32.02 396.147 33.9Z" fill="#2C2B35"/>
<path d="M426.44 12H453.14V42H446.66V18.12H432.92V42H426.44V12Z" fill="#2C2B35"/>
<path d="M484.419 16.26V12H490.899V42H484.419V37.68C481.979 41.08 478.479 42.78 473.919 42.78C469.799 42.78 466.279 41.26 463.359 38.22C460.439 35.18 458.979 31.44 458.979 27C458.979 22.56 460.439 18.82 463.359 15.78C466.279 12.74 469.799 11.22 473.919 11.22C478.479 11.22 481.979 12.9 484.419 16.26ZM468.159 33.9C469.959 35.7 472.219 36.6 474.939 36.6C477.659 36.6 479.919 35.7 481.719 33.9C483.519 32.06 484.419 29.76 484.419 27C484.419 24.24 483.519 21.96 481.719 20.16C479.919 18.32 477.659 17.4 474.939 17.4C472.219 17.4 469.959 18.32 468.159 20.16C466.359 21.96 465.459 24.24 465.459 27C465.459 29.72 466.359 32.02 468.159 33.9Z" fill="#2C2B35"/>
<path d="M512.612 42.78C508.092 42.78 504.312 41.26 501.272 38.22C498.272 35.14 496.772 31.4 496.772 27C496.772 22.52 498.272 18.78 501.272 15.78C504.312 12.74 508.092 11.22 512.612 11.22C515.532 11.22 518.192 11.92 520.592 13.32C522.992 14.72 524.792 16.6 525.992 18.96L520.412 22.2C519.732 20.76 518.692 19.64 517.292 18.84C515.932 18 514.352 17.58 512.552 17.58C509.912 17.58 507.692 18.48 505.892 20.28C504.132 22.12 503.252 24.36 503.252 27C503.252 29.64 504.132 31.88 505.892 33.72C507.692 35.52 509.912 36.42 512.552 36.42C514.312 36.42 515.892 36.02 517.292 35.22C518.732 34.38 519.812 33.24 520.532 31.8L526.112 34.98C524.832 37.38 522.972 39.28 520.532 40.68C518.132 42.08 515.492 42.78 512.612 42.78Z" fill="#2C2B35"/>
<path d="M554.087 16.26V12H560.567V42H554.087V37.68C551.647 41.08 548.147 42.78 543.587 42.78C539.467 42.78 535.947 41.26 533.027 38.22C530.107 35.18 528.647 31.44 528.647 27C528.647 22.56 530.107 18.82 533.027 15.78C535.947 12.74 539.467 11.22 543.587 11.22C548.147 11.22 551.647 12.9 554.087 16.26ZM537.827 33.9C539.627 35.7 541.887 36.6 544.607 36.6C547.327 36.6 549.587 35.7 551.387 33.9C553.187 32.06 554.087 29.76 554.087 27C554.087 24.24 553.187 21.96 551.387 20.16C549.587 18.32 547.327 17.4 544.607 17.4C541.887 17.4 539.627 18.32 537.827 20.16C536.027 21.96 535.127 24.24 535.127 27C535.127 29.72 536.027 32.02 537.827 33.9Z" fill="#2C2B35"/>
<path d="M592.12 12H598.72V42H592.42V22.26L583.78 36H583L574.42 22.32V42H568.12V12H574.72L583.42 25.86L592.12 12Z" fill="#2C2B35"/>
<path d="M612.566 31.02L627.926 12H632.906V42H626.546V22.92L611.186 42H606.206V12H612.566V31.02Z" fill="#2C2B35"/>
<path d="M19.26 77.22C23.34 77.22 26.86 78.76 29.82 81.84C32.74 84.88 34.2 88.6 34.2 93C34.2 97.44 32.74 101.18 29.82 104.22C26.9 107.26 23.38 108.78 19.26 108.78C14.74 108.78 11.24 107.1 8.76 103.74V120H2.28V78H8.76V82.32C11.2 78.92 14.7 77.22 19.26 77.22ZM11.46 99.9C13.26 101.7 15.52 102.6 18.24 102.6C20.96 102.6 23.22 101.7 25.02 99.9C26.82 98.06 27.72 95.76 27.72 93C27.72 90.24 26.82 87.96 25.02 86.16C23.22 84.32 20.96 83.4 18.24 83.4C15.52 83.4 13.26 84.32 11.46 86.16C9.66 87.96 8.76 90.24 8.76 93C8.76 95.72 9.66 98.02 11.46 99.9Z" fill="#2C2B35"/>
<path d="M65.453 104.22C62.413 107.26 58.673 108.78 54.233 108.78C49.793 108.78 46.053 107.26 43.013 104.22C39.933 101.14 38.393 97.4 38.393 93C38.393 88.6 39.933 84.86 43.013 81.78C46.053 78.74 49.793 77.22 54.233 77.22C58.673 77.22 62.413 78.74 65.453 81.78C68.533 84.86 70.073 88.6 70.073 93C70.073 97.4 68.533 101.14 65.453 104.22ZM44.873 93C44.873 95.72 45.773 97.98 47.573 99.78C49.373 101.58 51.593 102.48 54.233 102.48C56.873 102.48 59.093 101.58 60.893 99.78C62.693 97.98 63.593 95.72 63.593 93C63.593 90.28 62.693 88.02 60.893 86.22C59.093 84.42 56.873 83.52 54.233 83.52C51.593 83.52 49.373 84.42 47.573 86.22C45.773 88.02 44.873 90.28 44.873 93Z" fill="#2C2B35"/>
<path d="M91.6205 92.64C94.8205 94.08 96.4205 96.46 96.4205 99.78C96.4205 102.38 95.3605 104.54 93.2405 106.26C91.1205 107.94 88.2405 108.78 84.6005 108.78C78.5605 108.78 74.4805 106.38 72.3605 101.58L77.6405 98.46C78.7205 101.46 81.0605 102.96 84.6605 102.96C86.3405 102.96 87.6605 102.62 88.6205 101.94C89.5805 101.22 90.0605 100.28 90.0605 99.12C90.0605 98.08 89.6805 97.26 88.9205 96.66C88.1605 96.02 87.1005 95.7 85.7405 95.7H81.4805V90H84.6605C85.9805 90 87.0005 89.7 87.7205 89.1C88.4805 88.46 88.8605 87.6 88.8605 86.52C88.8605 85.48 88.4405 84.64 87.6005 84C86.7605 83.32 85.6405 82.98 84.2405 82.98C81.2405 82.98 79.1605 84.3 78.0005 86.94L72.7205 83.94C74.9205 79.46 78.7205 77.22 84.1205 77.22C87.4805 77.22 90.1405 78.08 92.1005 79.8C94.1005 81.48 95.1005 83.54 95.1005 85.98C95.1005 88.98 93.9405 91.2 91.6205 92.64Z" fill="#2C2B35"/>
<path d="M121.934 89.94V78H128.414V108H121.934V96.06H108.194V108H101.714V78H108.194V89.94H121.934Z" fill="#2C2B35"/>
<path d="M142.292 97.02L157.652 78H162.632V108H156.272V88.92L140.912 108H135.932V78H142.292V97.02Z" fill="#2C2B35"/>
<path d="M188.391 91.74V78H194.871V108H188.391V97.86C186.031 98.74 183.511 99.18 180.831 99.18C177.031 99.18 174.071 98.26 171.951 96.42C169.831 94.54 168.771 91.84 168.771 88.32V78H175.251V87.72C175.251 91.32 177.391 93.12 181.671 93.12C184.111 93.12 186.351 92.66 188.391 91.74Z" fill="#2C2B35"/>
<path d="M222.656 89.94V78H229.136V108H222.656V96.06H208.916V108H202.436V78H208.916V89.94H222.656Z" fill="#2C2B35"/>
<path d="M262.035 104.22C258.995 107.26 255.255 108.78 250.815 108.78C246.375 108.78 242.635 107.26 239.595 104.22C236.515 101.14 234.975 97.4 234.975 93C234.975 88.6 236.515 84.86 239.595 81.78C242.635 78.74 246.375 77.22 250.815 77.22C255.255 77.22 258.995 78.74 262.035 81.78C265.115 84.86 266.655 88.6 266.655 93C266.655 97.4 265.115 101.14 262.035 104.22ZM241.455 93C241.455 95.72 242.355 97.98 244.155 99.78C245.955 101.58 248.175 102.48 250.815 102.48C253.455 102.48 255.675 101.58 257.475 99.78C259.275 97.98 260.175 95.72 260.175 93C260.175 90.28 259.275 88.02 257.475 86.22C255.675 84.42 253.455 83.52 250.815 83.52C248.175 83.52 245.955 84.42 244.155 86.22C242.355 88.02 241.455 90.28 241.455 93Z" fill="#2C2B35"/>
<path d="M272.514 78H292.614V84.24H278.994V108H272.514V78Z" fill="#2C2B35"/>
<path d="M321.215 104.22C318.175 107.26 314.435 108.78 309.995 108.78C305.555 108.78 301.815 107.26 298.775 104.22C295.695 101.14 294.155 97.4 294.155 93C294.155 88.6 295.695 84.86 298.775 81.78C301.815 78.74 305.555 77.22 309.995 77.22C314.435 77.22 318.175 78.74 321.215 81.78C324.295 84.86 325.835 88.6 325.835 93C325.835 97.4 324.295 101.14 321.215 104.22ZM300.635 93C300.635 95.72 301.535 97.98 303.335 99.78C305.135 101.58 307.355 102.48 309.995 102.48C312.635 102.48 314.855 101.58 316.655 99.78C318.455 97.98 319.355 95.72 319.355 93C319.355 90.28 318.455 88.02 316.655 86.22C314.855 84.42 312.635 83.52 309.995 83.52C307.355 83.52 305.135 84.42 303.335 86.22C301.535 88.02 300.635 90.28 300.635 93Z" fill="#2C2B35"/>
<path d="M370.694 78H377.294V108H370.994V88.26L362.354 102H361.574L352.994 88.32V108H346.694V78H353.294L361.994 91.86L370.694 78Z" fill="#2C2B35"/>
<path d="M408.54 82.26V78H415.02V108H408.54V103.68C406.1 107.08 402.6 108.78 398.04 108.78C393.92 108.78 390.4 107.26 387.48 104.22C384.56 101.18 383.1 97.44 383.1 93C383.1 88.56 384.56 84.82 387.48 81.78C390.4 78.74 393.92 77.22 398.04 77.22C402.6 77.22 406.1 78.9 408.54 82.26ZM392.28 99.9C394.08 101.7 396.34 102.6 399.06 102.6C401.78 102.6 404.04 101.7 405.84 99.9C407.64 98.06 408.54 95.76 408.54 93C408.54 90.24 407.64 87.96 405.84 86.16C404.04 84.32 401.78 83.4 399.06 83.4C396.34 83.4 394.08 84.32 392.28 86.16C390.48 87.96 389.58 90.24 389.58 93C389.58 95.72 390.48 98.02 392.28 99.9Z" fill="#2C2B35"/>
<path d="M422.573 78H442.673V84.24H429.053V108H422.573V78Z" fill="#2C2B35"/>
<path d="M469.653 82.26V78H476.133V108H469.653V103.68C467.213 107.08 463.713 108.78 459.153 108.78C455.033 108.78 451.513 107.26 448.593 104.22C445.673 101.18 444.213 97.44 444.213 93C444.213 88.56 445.673 84.82 448.593 81.78C451.513 78.74 455.033 77.22 459.153 77.22C463.713 77.22 467.213 78.9 469.653 82.26ZM453.393 99.9C455.193 101.7 457.453 102.6 460.173 102.6C462.893 102.6 465.153 101.7 466.953 99.9C468.753 98.06 469.653 95.76 469.653 93C469.653 90.24 468.753 87.96 466.953 86.16C465.153 84.32 462.893 83.4 460.173 83.4C457.453 83.4 455.193 84.32 453.393 86.16C451.593 87.96 450.693 90.24 450.693 93C450.693 95.72 451.593 98.02 453.393 99.9Z" fill="#2C2B35"/>
<path d="M500.546 92.64C503.746 94.08 505.346 96.46 505.346 99.78C505.346 102.38 504.286 104.54 502.166 106.26C500.046 107.94 497.166 108.78 493.526 108.78C487.486 108.78 483.406 106.38 481.286 101.58L486.566 98.46C487.646 101.46 489.986 102.96 493.586 102.96C495.266 102.96 496.586 102.62 497.546 101.94C498.506 101.22 498.986 100.28 498.986 99.12C498.986 98.08 498.606 97.26 497.846 96.66C497.086 96.02 496.026 95.7 494.666 95.7H490.406V90H493.586C494.906 90 495.926 89.7 496.646 89.1C497.406 88.46 497.786 87.6 497.786 86.52C497.786 85.48 497.366 84.64 496.526 84C495.686 83.32 494.566 82.98 493.166 82.98C490.166 82.98 488.086 84.3 486.926 86.94L481.646 83.94C483.846 79.46 487.646 77.22 493.046 77.22C496.406 77.22 499.066 78.08 501.026 79.8C503.026 81.48 504.026 83.54 504.026 85.98C504.026 88.98 502.866 91.2 500.546 92.64Z" fill="#2C2B35"/>
<path d="M516.999 97.02L532.359 78H537.339V108H530.979V88.92L515.619 108H510.639V78H516.999V97.02Z" fill="#2C2B35"/>
<path d="M565.078 89.94V78H571.558V108H565.078V96.06H551.338V108H544.858V78H551.338V89.94H565.078Z" fill="#2C2B35"/>
<path d="M602.837 82.26V78H609.317V108H602.837V103.68C600.397 107.08 596.897 108.78 592.337 108.78C588.217 108.78 584.697 107.26 581.777 104.22C578.857 101.18 577.397 97.44 577.397 93C577.397 88.56 578.857 84.82 581.777 81.78C584.697 78.74 588.217 77.22 592.337 77.22C596.897 77.22 600.397 78.9 602.837 82.26ZM586.577 99.9C588.377 101.7 590.637 102.6 593.357 102.6C596.077 102.6 598.337 101.7 600.137 99.9C601.937 98.06 602.837 95.76 602.837 93C602.837 90.24 601.937 87.96 600.137 86.16C598.337 84.32 596.077 83.4 593.357 83.4C590.637 83.4 588.377 84.32 586.577 86.16C584.777 87.96 583.877 90.24 583.877 93C583.877 95.72 584.777 98.02 586.577 99.9Z" fill="#2C2B35"/>
</svg>
